<svg xmlns="http://www.w3.org/2000/svg" viewBox="0 0 1600 1000" preserveAspectRatio="xMidYMax slice"><defs>
<linearGradient id="sky" x1="0" y1="0" x2="0" y2="1">
  <stop offset="0" stop-color="#121130"/><stop offset=".42" stop-color="#262150"/>
  <stop offset=".68" stop-color="#47376a"/><stop offset=".84" stop-color="#835776"/>
  <stop offset="1" stop-color="#b47478"/>
</linearGradient>
<radialGradient id="moonglow" cx="1000" cy="400" r="230" gradientUnits="userSpaceOnUse">
  <stop offset="0" stop-color="#fdf0cf" stop-opacity=".35"/><stop offset="1" stop-color="#fdf0cf" stop-opacity="0"/>
</radialGradient>
<radialGradient id="lamp">
  <stop offset="0" stop-color="#f6c177" stop-opacity=".55"/><stop offset="1" stop-color="#f6c177" stop-opacity="0"/>
</radialGradient>
<mask id="crescent">
  <rect width="100%" height="100%" fill="#fff"/><circle cx="1022" cy="386" r="44" fill="#000"/>
</mask>
<linearGradient id="cloudN" x1="0" y1="420" x2="0" y2="800" gradientUnits="userSpaceOnUse">
  <stop offset="0" stop-color="#6d5a8e"/><stop offset="1" stop-color="#4a3b6a"/>
</linearGradient>
</defs><rect width="100%" height="100%" fill="url(#sky)"/><circle cx="724" cy="284" r="1.6" fill="#fff" opacity="0.62"/><circle cx="1368" cy="63" r="2.1" fill="#fff" opacity="0.64"/><circle cx="982" cy="61" r="1.6" fill="#fff" opacity="0.53"/><circle cx="145" cy="476" r="0.9" fill="#fff" opacity="0.71"/><circle cx="634" cy="211" r="2.1" fill="#fff" opacity="0.74"/><circle cx="997" cy="494" r="0.9" fill="#fff" opacity="0.39"/><circle cx="304" cy="88" r="0.9" fill="#fff" opacity="0.82"/><circle cx="522" cy="306" r="1.1" fill="#fff" opacity="0.66"/><circle cx="1024" cy="242" r="0.9" fill="#fff" opacity="0.62"/><circle cx="445" cy="638" r="0.9" fill="#fff" opacity="0.77"/><circle cx="504" cy="82" r="1.3" fill="#fff" opacity="0.37"/><circle cx="901" cy="28" r="0.9" fill="#fff" opacity="0.86"/><circle cx="618" cy="603" r="0.9" fill="#fff" opacity="0.48"/><circle cx="1483" cy="10" r="1.6" fill="#fff" opacity="0.94"/><circle cx="636" cy="16" r="1.1" fill="#fff" opacity="0.82"/><circle cx="432" cy="21" r="1.3" fill="#fff" opacity="0.36"/><circle cx="656" cy="572" r="1.1" fill="#fff" opacity="0.50"/><circle cx="162" cy="12" r="1.6" fill="#fff" opacity="0.46"/><circle cx="895" cy="208" r="1.1" fill="#fff" opacity="0.94"/><circle cx="1231" cy="190" r="1.6" fill="#fff" opacity="0.42"/><circle cx="673" cy="73" r="1.3" fill="#fff" opacity="0.87"/><circle cx="1560" cy="308" r="0.9" fill="#fff" opacity="0.48"/><circle cx="631" cy="513" r="2.1" fill="#fff" opacity="0.41"/><circle cx="1583" cy="74" r="1.3" fill="#fff" opacity="0.36"/><circle cx="977" cy="493" r="1.6" fill="#fff" opacity="0.39"/><circle cx="144" cy="300" r="1.1" fill="#fff" opacity="0.36"/><circle cx="590" cy="329" r="1.1" fill="#fff" opacity="0.93"/><circle cx="774" cy="295" r="1.6" fill="#fff" opacity="0.46"/><circle cx="247" cy="559" r="2.1" fill="#fff" opacity="0.50"/><circle cx="304" cy="419" r="2.1" fill="#fff" opacity="0.47"/><circle cx="1520" cy="537" r="2.1" fill="#fff" opacity="0.40"/><circle cx="76" cy="29" r="2.1" fill="#fff" opacity="0.93"/><circle cx="381" cy="392" r="1.3" fill="#fff" opacity="0.60"/><circle cx="1448" cy="236" r="2.1" fill="#fff" opacity="0.46"/><circle cx="1153" cy="15" r="1.1" fill="#fff" opacity="0.64"/><circle cx="1046" cy="325" r="0.9" fill="#fff" opacity="0.52"/><circle cx="1468" cy="69" r="0.9" fill="#fff" opacity="0.39"/><circle cx="658" cy="91" r="0.9" fill="#fff" opacity="0.46"/><circle cx="590" cy="293" r="1.1" fill="#fff" opacity="0.41"/><circle cx="221" cy="209" r="1.3" fill="#fff" opacity="0.74"/><circle cx="1106" cy="302" r="1.1" fill="#fff" opacity="0.70"/><circle cx="1478" cy="226" r="1.3" fill="#fff" opacity="0.77"/><circle cx="1540" cy="3" r="0.9" fill="#fff" opacity="0.64"/><circle cx="1169" cy="129" r="0.9" fill="#fff" opacity="0.40"/><circle cx="874" cy="417" r="1.1" fill="#fff" opacity="0.83"/><circle cx="1464" cy="148" r="1.6" fill="#fff" opacity="0.89"/><circle cx="1394" cy="188" r="0.9" fill="#fff" opacity="0.87"/><circle cx="916" cy="331" r="1.6" fill="#fff" opacity="0.58"/><circle cx="20" cy="16" r="0.9" fill="#fff" opacity="0.73"/><circle cx="1589" cy="535" r="1.3" fill="#fff" opacity="0.58"/><circle cx="1176" cy="299" r="1.6" fill="#fff" opacity="0.63"/><circle cx="866" cy="255" r="2.1" fill="#fff" opacity="0.37"/><circle cx="962" cy="230" r="1.1" fill="#fff" opacity="0.92"/><circle cx="181" cy="452" r="1.6" fill="#fff" opacity="0.50"/><circle cx="18" cy="119" r="2.1" fill="#fff" opacity="0.47"/><circle cx="271" cy="557" r="1.6" fill="#fff" opacity="0.65"/><circle cx="386" cy="180" r="1.3" fill="#fff" opacity="0.47"/><circle cx="689" cy="473" r="1.1" fill="#fff" opacity="0.88"/><circle cx="615" cy="301" r="1.3" fill="#fff" opacity="0.48"/><circle cx="215" cy="148" r="0.9" fill="#fff" opacity="0.78"/><circle cx="1520" cy="106" r="1.1" fill="#fff" opacity="0.42"/><circle cx="754" cy="574" r="1.6" fill="#fff" opacity="0.58"/><circle cx="832" cy="367" r="2.1" fill="#fff" opacity="0.62"/><circle cx="119" cy="5" r="2.1" fill="#fff" opacity="0.37"/><circle cx="1134" cy="292" r="1.3" fill="#fff" opacity="0.74"/><circle cx="902" cy="343" r="1.6" fill="#fff" opacity="0.62"/><circle cx="40" cy="493" r="1.1" fill="#fff" opacity="0.82"/><circle cx="1275" cy="626" r="0.9" fill="#fff" opacity="0.62"/><circle cx="1008" cy="354" r="1.3" fill="#fff" opacity="0.93"/><circle cx="1095" cy="67" r="1.6" fill="#fff" opacity="0.50"/><circle cx="1143" cy="432" r="2.1" fill="#fff" opacity="0.78"/><circle cx="287" cy="104" r="1.3" fill="#fff" opacity="0.67"/><circle cx="1515" cy="243" r="1.1" fill="#fff" opacity="0.59"/><circle cx="1267" cy="558" r="0.9" fill="#fff" opacity="0.60"/><circle cx="1428" cy="170" r="1.6" fill="#fff" opacity="0.62"/><circle cx="1001" cy="561" r="1.6" fill="#fff" opacity="0.68"/><circle cx="1044" cy="244" r="1.3" fill="#fff" opacity="0.63"/><circle cx="1042" cy="70" r="0.9" fill="#fff" opacity="0.48"/><circle cx="1440" cy="623" r="1.3" fill="#fff" opacity="0.67"/><circle cx="1265" cy="130" r="0.9" fill="#fff" opacity="0.56"/><circle cx="132" cy="203" r="2.1" fill="#fff" opacity="0.60"/><circle cx="440" cy="569" r="1.1" fill="#fff" opacity="0.84"/><circle cx="102" cy="468" r="1.1" fill="#fff" opacity="0.67"/><circle cx="1099" cy="566" r="1.6" fill="#fff" opacity="0.44"/><circle cx="826" cy="407" r="1.6" fill="#fff" opacity="0.92"/><circle cx="788" cy="595" r="0.9" fill="#fff" opacity="0.80"/><circle cx="703" cy="283" r="2.1" fill="#fff" opacity="0.73"/><circle cx="836" cy="504" r="2.1" fill="#fff" opacity="0.50"/><circle cx="1074" cy="600" r="2.1" fill="#fff" opacity="0.47"/><circle cx="1361" cy="612" r="2.1" fill="#fff" opacity="0.51"/><rect width="100%" height="100%" fill="url(#moonglow)"/><circle cx="1000" cy="400" r="46" fill="#fdf0cf" mask="url(#crescent)"/><g opacity=".35"><circle cx="120" cy="700" r="62" fill="url(#cloudN)"/><circle cx="172" cy="650" r="92" fill="url(#cloudN)"/><circle cx="262" cy="604" r="112" fill="url(#cloudN)"/><circle cx="362" cy="640" r="86" fill="url(#cloudN)"/><circle cx="432" cy="692" r="70" fill="url(#cloudN)"/><circle cx="300" cy="520" r="96" fill="url(#cloudN)"/><circle cx="222" cy="545" r="72" fill="url(#cloudN)"/><circle cx="382" cy="562" r="62" fill="url(#cloudN)"/><circle cx="270" cy="700" r="120" fill="url(#cloudN)"/><circle cx="350" cy="714" r="90" fill="url(#cloudN)"/></g><g opacity=".3"><circle cx="1210" cy="724" r="46" fill="url(#cloudN)"/><circle cx="1282" cy="702" r="62" fill="url(#cloudN)"/><circle cx="1352" cy="672" r="86" fill="url(#cloudN)"/><circle cx="1432" cy="692" r="66" fill="url(#cloudN)"/><circle cx="1500" cy="712" r="52" fill="url(#cloudN)"/><circle cx="1392" cy="632" r="60" fill="url(#cloudN)"/></g><path d="M0,760 C200,700 380,722 560,742 C760,762 900,692 1100,702 C1280,710 1420,742 1600,722 L1600,1000 L0,1000 Z" fill="#3a2f60" opacity=".95"/><path d="M0,822 C180,782 320,792 480,812 C680,838 820,772 1020,782 C1220,792 1380,832 1600,802 L1600,1000 L0,1000 Z" fill="#2a2249"/><rect x="937.5" y="787.0" width="5" height="16" rx="2" fill="#1c1734"/><circle cx="940" cy="778" r="18" fill="#211b3d"/><rect x="965.5" y="784.0" width="5" height="22" rx="2" fill="#1c1734"/><circle cx="968" cy="772" r="24" fill="#211b3d"/><rect x="997.5" y="787.5" width="5" height="14" rx="2" fill="#1c1734"/><circle cx="1000" cy="780" r="15" fill="#211b3d"/><rect x="1123.5" y="786.5" width="5" height="19" rx="2" fill="#1c1734"/><circle cx="1126" cy="776" r="21" fill="#211b3d"/><rect x="1149.5" y="790.0" width="5" height="13" rx="2" fill="#1c1734"/><circle cx="1152" cy="783" r="14" fill="#211b3d"/><rect x="297.5" y="810.0" width="5" height="18" rx="2" fill="#1c1734"/><circle cx="300" cy="800" r="20" fill="#211b3d"/><rect x="325.5" y="813.0" width="5" height="13" rx="2" fill="#1c1734"/><circle cx="328" cy="806" r="14" fill="#211b3d"/><circle cx="1242" cy="792" r="42" fill="url(#lamp)"/><rect x="1222" y="778" width="40" height="26" fill="#2b2350"/><polygon points="1217,779 1242,760 1267,779" fill="#1d1834"/><rect x="1230" y="786" width="9" height="9" rx="1.5" fill="#f6c177"/><rect x="1246" y="786" width="9" height="9" rx="1.5" fill="#f6c177"/><circle cx="1310" cy="802" r="42" fill="url(#lamp)"/><rect x="1290" y="788" width="40" height="26" fill="#2b2350"/><polygon points="1285,789 1310,770 1335,789" fill="#1d1834"/><rect x="1298" y="796" width="9" height="9" rx="1.5" fill="#f6c177"/><rect x="1314" y="796" width="9" height="9" rx="1.5" fill="#f6c177"/><path d="M0,902 C240,862 480,872 700,892 C940,914 1180,862 1400,872 C1500,877 1560,887 1600,882 L1600,1000 L0,1000 Z" fill="#1b1631"/></svg>
